<?xml version="1.0" encoding="UTF-8"?>
<svg id="Ebene_1" data-name="Ebene 1" xmlns="http://www.w3.org/2000/svg" viewBox="0 0 651.11 717.16">
  <defs>
    <style>
      .cls-1 {
        fill: #ffc612;
      }

      .cls-2 {
        fill: #fff;
      }

      .cls-3 {
        fill: #ff9517;
      }

      .cls-4 {
        fill: #c7ffbd;
      }
    </style>
  </defs>
  <circle class="cls-1" cx="325.56" cy="325.56" r="303.06"/>
  <circle class="cls-3" cx="324.91" cy="407.88" r="227.12"/>
  <path class="cls-2" d="M209.67,259.77h0c21.71,0,39.33,17.62,39.33,39.33v262h-78.67v-262c0-21.71,17.62-39.33,39.33-39.33Z"/>
  <rect class="cls-2" x="170.34" y="155.77" width="78.67" height="78.67" rx="39.33" ry="39.33"/>
  <rect class="cls-2" x="282.34" y="251.62" width="78.67" height="78.67" rx="39.33" ry="39.33"/>
  <rect class="cls-2" x="406.34" y="162.62" width="78.67" height="78.67" rx="39.33" ry="39.33"/>
  <path class="cls-2" d="M321.67,343.1h0c21.71,0,39.33,17.62,39.33,39.33v178.67h-78.67v-178.67c0-21.71,17.62-39.33,39.33-39.33Z"/>
  <path class="cls-2" d="M445.67,259.77h0c21.71,0,39.33,17.62,39.33,39.33v262h-78.67v-262c0-21.71,17.62-39.33,39.33-39.33Z"/>
  <path class="cls-4" d="M651.11,325.56c0-86.96-33.86-168.71-95.35-230.2C494.27,33.87,412.52,0,325.56,0c-86.3,0-169.19,34.33-230.21,95.35C33.86,156.84,0,238.6,0,325.56s33.86,168.71,95.35,230.2c4.18,4.18,8.45,8.21,12.81,12.13,101.38,109.17,212.39,149.27,212.39,149.27,2.8,2.67,7.2,2.67,10,0,0,0,111.01-40.1,212.39-149.27,4.36-3.92,8.64-7.96,12.81-12.13,61.49-61.49,95.35-143.24,95.35-230.2ZM45,325.56c0-154.62,125.72-280.42,280.31-280.56,153.56-.13,279.4,124.41,280.79,277.97.88,96.65-47.39,182.28-121.27,233.42H166.28c-73.22-50.68-121.28-135.24-121.28-230.83Z"/>
</svg>